{"title":"The Christmas Bunny (Rel 2011) DVDRip AC3 H264 NL Subs","uid":6863919,"size":1476670008,"categoryP":"video","categoryS":"movies","magnet":"?xt=urn:btih:0d3bb467fd4e905b1bb854ed058c4e2e6c9f9ced&amp;dn=The+Christmas+Bunny+%28Rel+2011%29+DVDRip+AC3+H264+NL+Subs&amp;tr=udp%3A%2F%2Ftracker.openbittorrent.com%3A80&amp;tr=udp%3A%2F%2Fopen.demonii.com%3A1337&amp;tr=udp%3A%2F%2Ftracker.coppersurfer.tk%3A6969&amp;tr=udp%3A%2F%2Fexodus.desync.com%3A6969","seeders":0,"leechers":1,"uploader":"NLUPPER002","files":-1,"time":1323020688,"description":"The Christmas Bunny (Rel 2011) DVDRip AC3 H264 NL Subs\n.\nAlternatieve titel: Flappie! Het Kerstkonijn \n.\nSubtitles: vobsubs\n.\n[IMG]http://img832.imageshack.us/img832/2599/ftkb2011.jpg[/IMG]\n.\nVerenigde Staten\nDrama / Familie\n100 minuten\n\ngeregisseerd door Tom Seidman\nmet Florence Henderson, Sophie Bolen en Madeline Vail\n\nJulia is een eenzaam pleegkind. Ze treft op kerstavond een gewond konijn aan en sluit een onverwachte vriendschap met een excentrieke boerenvrouw, die het konijn onder haar hoede neemt. Ondertussen weet Julia een band te krijgen met haar pleeggezin, waardoor het een stuk beter met haar gaat.\n\nVanaf 6 december te huur\n. &lt;a href=&quot;\nhttp://www.moviemeter.nl/film/80666&quot; rel=&quot;nofollow&quot; target=&quot;_NEW&quot;&gt;\nhttp://www.moviemeter.nl/film/80666&lt;/a&gt;\n.\nPLOT\n. &lt;a href=&quot;\nhttp://www.imdb.com/title/tt1640714/&quot; rel=&quot;nofollow&quot; target=&quot;_NEW&quot;&gt;\nhttp://www.imdb.com/title/tt1640714/&lt;/a&gt;\n.\nINFO\n.\nVideo\nID                               : 0\nFormat                           : AVC\nFormat/Info                      : Advanced Video Codec\nCodec ID                         : H264\nDuration                         : 1h 35mn\nBit rate                         : 1 821 Kbps\nWidth                            : 720 pixels\nHeight                           : 406 pixels\nDisplay aspect ratio             : 16:9\nFrame rate                       : 25.000 fps\nColor space                      : YUV\nChroma subsampling               : 4:2:0\nBits/(Pixel*Frame)               : 0.249\nStream size                      : 1.21 GiB (89%)\n\nAudio\nID                               : 1\nFormat                           : AC-3\nFormat/Info                      : Audio Coding 3\nMode extension                   : CM (complete main)\nCodec ID                         : 2000\nDuration                         : 1h 35mn\nBit rate mode                    : Constant\nBit rate                         : 224 Kbps\nChannel(s)                       : 2 channels\nChannel positions                : Front: L R\nSampling rate                    : 48.0 KHz\nBit depth                        : 16 bits\nStream size                      : 153 MiB (11%)\nAlignment                        : Aligned on interleaves\nInterleave, duration             : 32 ms (0.80 video frame)\nInterleave, preload duration     : 32 ms\n.\nEnjoy\n","torrent":{"xt":"urn:btih:0d3bb467fd4e905b1bb854ed058c4e2e6c9f9ced","amp;dn":"The+Christmas+Bunny+%28Rel+2011%29+DVDRip+AC3+H264+NL+Subs","amp;tr":["udp%3A%2F%2Ftracker.openbittorrent.com%3A80","udp%3A%2F%2Fopen.demonii.com%3A1337","udp%3A%2F%2Ftracker.coppersurfer.tk%3A6969","udp%3A%2F%2Fexodus.desync.com%3A6969"],"infoHash":"0d3bb467fd4e905b1bb854ed058c4e2e6c9f9ced","infoHashBuffer":{"type":"Buffer","data":[13,59,180,103,253,78,144,91,27,184,84,237,5,140,78,46,108,159,156,237]},"announce":[],"urlList":[]}}